<svg xmlns="http://www.w3.org/2000/svg" viewBox="0 0 240 240" role="img" aria-label="Space Pixl" style="display:block;overflow:visible;"><defs><radialGradient id="fsp" cx="36%" cy="30%" r="75%"><stop offset="0" stop-color="#f1ecff"/><stop offset="0.22" stop-color="#bba9ff"/><stop offset="0.55" stop-color="#7b68d8"/><stop offset="0.85" stop-color="#2b1f66"/><stop offset="1" stop-color="#0d0a1f"/></radialGradient><radialGradient id="frim" cx="50%" cy="50%" r="50%"><stop offset="0.8" stop-color="#c8b9ff" stop-opacity="0"/><stop offset="0.97" stop-color="#c8b9ff" stop-opacity="0.5"/><stop offset="1" stop-color="#ffffff" stop-opacity="0"/></radialGradient><linearGradient id="for" gradientUnits="userSpaceOnUse" x1="14" y1="160" x2="226" y2="82"><stop offset="0" stop-color="#93a4ff" stop-opacity="0.12"/><stop offset="0.55" stop-color="#93a4ff" stop-opacity="0.6"/><stop offset="1" stop-color="#e3e8ff"/></linearGradient><clipPath id="ffc"><rect x="-200" y="0" width="400" height="200" transform="translate(120 120) rotate(-20)"/></clipPath><mask id="fob" maskUnits="userSpaceOnUse" x="-20" y="-20" width="280" height="280"><rect x="-20" y="-20" width="280" height="280" fill="#ffffff"/><circle cx="120" cy="120" r="74" fill="#000000"/></mask><mask id="fsm" maskUnits="userSpaceOnUse" x="0" y="0" width="240" height="240"><rect x="0" y="0" width="240" height="240" fill="#ffffff"/><g clip-path="url(#ffc)"><ellipse cx="120" cy="120" rx="114" ry="36" transform="rotate(-20 120 120)" fill="none" stroke="#000000" stroke-width="24"/></g></mask></defs><ellipse cx="120" cy="120" rx="114" ry="36" transform="rotate(-20 120 120)" fill="none" stroke="url(#for)" stroke-width="12" mask="url(#fob)"/><g mask="url(#fsm)"><circle cx="120" cy="120" r="64" fill="url(#fsp)"/><circle cx="120" cy="120" r="64" fill="url(#frim)"/></g><rect x="85.44" y="84.16" width="15.36" height="15.36" fill="#ffffff" opacity="0.94"/><g clip-path="url(#ffc)"><ellipse cx="120" cy="120" rx="114" ry="36" transform="rotate(-20 120 120)" fill="none" stroke="url(#for)" stroke-width="12"/></g><rect x="204.93" y="89.15" width="28" height="28" fill="#c4cdff" opacity="1"/></svg>
